<svg id="Layer_3" enable-background="new 0 0 64 64" height="512" viewBox="0 0 64 64" width="512" xmlns="http://www.w3.org/2000/svg"><g><g><path d="m32 49.998c-9.925 0-18-8.074-18-17.999s8.075-18 18-18 18 8.075 18 18-8.075 17.999-18 17.999zm0-33.998c-8.823 0-16 7.177-16 16 0 8.822 7.177 15.999 16 15.999 8.822 0 16-7.177 16-15.999 0-8.823-7.178-16-16-16z" fill="#c1c8d1"/></g><g><path d="m32 55.998c-13.234 0-24-10.766-24-23.998 0-13.234 10.766-24 24-24 13.233 0 24 10.766 24 24 0 13.232-10.767 23.998-24 23.998zm0-45.998c-12.131 0-22 9.869-22 22 0 12.13 9.869 21.999 22 21.999 12.13 0 22-9.868 22-21.999s-9.87-22-22-22z" fill="#c1c8d1"/></g><g><path d="m31.958 62.999c-17.071 0-30.958-13.907-30.958-30.999 0-17.094 13.887-31 30.958-31 17.07 0 30.958 13.906 30.958 31-.001 17.092-13.889 30.999-30.958 30.999zm0-59.999c-15.968 0-28.958 13.009-28.958 29 0 15.99 12.991 29 28.958 29s28.958-13.01 28.958-29c-.001-15.991-12.992-29-28.958-29z" fill="#c1c8d1"/></g><circle cx="7" cy="51" fill="#c7e2fc" r="5"/><path d="m9 55.584v-2.781c0-1.126-.563-2.178-1.5-2.803-.937-.625-1.5-1.677-1.5-2.803v-1.097l-.008.002c.326-.067.663-.102 1.008-.102 2.761 0 5 2.239 5 5 0 2.05-1.234 3.812-3 4.584z" fill="#96cc7f"/><path d="m28 42-2-4-4-2 2-4-2-4 4-2 2-4 4 2 4-2 2 4 4 2-2 4 2 4-4 2-2 4-4-2z" fill="#f7d881"/><circle cx="32" cy="32" fill="#e39854" r="5"/><circle cx="32" cy="9" fill="#e47c6e" r="3"/><circle cx="57" cy="13" fill="#8892a0" r="5"/><circle cx="17" cy="24" fill="#4d5d7a" r="2"/><g><path d="m49 45.998c-1.503 0-9-.145-9-2.999 0-2.166 4.348-2.769 6.939-2.935l.128 1.995c-2.588.167-4.134.62-4.79.942.867.429 3.188.996 6.722.996 3.54 0 5.862-.568 6.725-.998-.641-.32-2.142-.763-4.711-.936l.134-1.995c2.559.172 6.852.781 6.852 2.93 0 2.856-7.497 3-8.999 3z" fill="#8892a0"/></g><circle cx="49" cy="43" fill="#f7d881" r="4"/></g></svg>