<?xml version="1.0"?>
<svg xmlns="http://www.w3.org/2000/svg" xmlns:xlink="http://www.w3.org/1999/xlink" version="1.1" id="Capa_1" x="0px" y="0px" viewBox="0 0 497.261 497.261" style="enable-background:new 0 0 497.261 497.261;" xml:space="preserve" width="512px" height="512px" class=""><g><path style="fill:#FFFFFF;" d="M361.115,8.533H52.364c24.048,0,44.218,19.394,44.218,44.218c0,24.048-19.394,44.218-44.218,44.218  h308.752c24.048,0,44.218-19.394,44.218-44.218C404.558,27.927,385.164,8.533,361.115,8.533z" data-original="#FFFFFF" class=""/><g>
	<path style="fill:#193651;" d="M361.115,103.952H52.364c-4.655,0-7.758-3.103-7.758-7.758s3.103-7.758,7.758-7.758   c20.17,0,36.461-16.291,36.461-36.461S72.533,15.515,52.364,15.515c-4.655,0-7.758-3.103-7.758-7.758S47.709,0,52.364,0h308.752   c28.703,0,51.976,23.273,51.976,51.976S389.042,103.952,361.115,103.952z M88.824,88.436h272.291   c20.17,0,36.461-16.291,36.461-36.461c-0.776-19.394-17.067-35.685-36.461-35.685H88.824c9.309,9.309,14.739,21.721,14.739,36.461   C103.564,66.715,98.133,79.127,88.824,88.436z" data-original="#193651" class=""/>
	<path style="fill:#193651;" d="M8.145,418.133c-4.655,0-7.758-3.103-7.758-7.758V52.752c0-28.703,23.273-51.976,51.976-51.976   s51.976,23.273,51.976,51.976s-23.273,51.976-51.976,51.976c-4.655,0-7.758-3.103-7.758-7.758s3.103-7.758,7.758-7.758   c20.17,0,36.461-16.291,36.461-36.461S72.533,16.291,52.364,16.291S15.903,32.582,15.903,52.752v358.4   C15.903,415.03,12.8,418.133,8.145,418.133z" data-original="#193651" class=""/>
</g><rect x="52.364" y="96.194" style="fill:#FFFFFF;" width="301.77" height="393.309" data-original="#FFFFFF" class=""/><path style="fill:#193651;" d="M354.133,497.261H52.364c-4.655,0-7.758-3.103-7.758-7.758V96.194c0-4.655,3.103-7.758,7.758-7.758  h301.77c4.655,0,7.758,3.103,7.758,7.758v393.309C361.891,494.158,358.012,497.261,354.133,497.261z M60.121,481.745h286.255  V103.952H60.121V481.745z" data-original="#193651" class=""/><rect x="83.13" y="127.62" style="fill:#E1E6E9;" width="239.709" height="331.249" data-original="#E1E6E9" class=""/><g>
	<rect x="153.212" y="158.255" style="fill:#193651;" width="15.515" height="15.515" data-original="#193651" class=""/>
	<rect x="195.103" y="158.255" style="fill:#193651;" width="15.515" height="15.515" data-original="#193651" class=""/>
	<rect x="236.994" y="158.255" style="fill:#193651;" width="15.515" height="15.515" data-original="#193651" class=""/>
	<rect x="186.57" y="44.994" style="fill:#193651;" width="15.515" height="15.515" data-original="#193651" class=""/>
	<rect x="228.461" y="44.994" style="fill:#193651;" width="15.515" height="15.515" data-original="#193651" class=""/>
	<rect x="270.352" y="44.994" style="fill:#193651;" width="15.515" height="15.515" data-original="#193651" class=""/>
</g><polygon style="fill:#FFFFFF;" points="489.115,78.352 456.533,24.824 424.727,78.352 424.727,428.994 489.115,428.994 " data-original="#FFFFFF" class=""/><path style="fill:#193651;" d="M489.115,436.752h-64.388c-4.655,0-7.758-3.103-7.758-7.758V78.352c0-1.552,0-3.103,0.776-3.879  l32.582-53.527c1.552-2.327,3.879-3.879,6.982-3.879l0,0c3.103,0,5.43,1.552,6.982,3.879l32.582,53.527c0,0.776,0,2.327,0,3.879  v350.642C496.873,432.873,493.77,436.752,489.115,436.752z M432.485,421.236h48.873V80.679l-24.824-41.115l-24.824,40.339  L432.485,421.236z" data-original="#193651" class=""/><rect x="446.448" y="235.83" style="fill:#00CCFF" width="21.721" height="166.012" data-original="#2EA2DB" class="" data-old_color="#2EA2DB"/><path style="fill:#FF4D4D" d="M424.727,428.994v48.097c0,6.982,5.43,13.188,13.188,13.188h38.788  c6.982,0,13.188-5.43,13.188-13.188v-48.097L424.727,428.994z" data-original="#F16051" class="active-path" data-old_color="#F16051"/><g>
	<path style="fill:#193651;" d="M475.927,497.261h-38.788c-11.636,0-20.945-9.309-20.945-20.945v-48.097   c0-4.655,3.103-7.758,7.758-7.758h65.164c4.655,0,7.758,3.103,7.758,7.758v48.097C496.873,487.952,487.564,497.261,475.927,497.261   z M432.485,436.752v40.339c0,3.103,2.327,5.43,5.43,5.43h38.788c3.103,0,5.43-2.327,5.43-5.43v-40.339H432.485z" data-original="#193651" class=""/>
	<path style="fill:#193651;" d="M424.727,436.752h-20.945c-13.188,0-23.273-10.085-23.273-23.273V275.394   c0-4.655,3.103-7.758,7.758-7.758c4.655,0,7.758,3.103,7.758,7.758v137.309c0,4.655,3.103,7.758,7.758,7.758h20.945   c4.655,0,7.758,3.103,7.758,7.758S428.606,436.752,424.727,436.752z" data-original="#193651" class=""/>
	<path style="fill:#193651;" d="M456.533,32.582c-4.655,0-7.758-3.103-7.758-7.758V8.533c0-4.655,3.103-7.758,7.758-7.758   c4.655,0,7.758,3.103,7.758,7.758v16.291C464.291,29.479,461.188,32.582,456.533,32.582z" data-original="#193651" class=""/>
	<rect x="114.424" y="201.697" style="fill:#193651;" width="176.873" height="15.515" data-original="#193651" class=""/>
	<rect x="114.424" y="253.673" style="fill:#193651;" width="176.873" height="15.515" data-original="#193651" class=""/>
	<rect x="114.424" y="305.648" style="fill:#193651;" width="176.873" height="15.515" data-original="#193651" class=""/>
	<rect x="114.424" y="357.624" style="fill:#193651;" width="176.873" height="15.515" data-original="#193651" class=""/>
	<rect x="114.424" y="409.6" style="fill:#193651;" width="88.436" height="15.515" data-original="#193651" class=""/>
	<rect x="448.776" y="97.745" style="fill:#193651;" width="15.515" height="15.515" data-original="#193651" class=""/>
	<rect x="448.776" y="139.636" style="fill:#193651;" width="15.515" height="15.515" data-original="#193651" class=""/>
	<rect x="448.776" y="181.527" style="fill:#193651;" width="15.515" height="15.515" data-original="#193651" class=""/>
	<path style="fill:#193651;" d="M52.364,103.952c-4.655,0-7.758-3.103-7.758-7.758V55.855c0-4.655,3.103-7.758,7.758-7.758h10.085   c4.655,0,7.758,3.103,7.758,7.758s-3.103,7.758-7.758,7.758h-2.327v32.582C60.121,100.848,56.242,103.952,52.364,103.952z" data-original="#193651" class=""/>
</g></g> </svg>
