<?xml version="1.0"?>
<svg xmlns="http://www.w3.org/2000/svg" height="512px" viewBox="0 0 512 512" width="512px" class=""><g><path d="m200 111.945v160h112v-48a16 16 0 0 0 16-16v-96z" fill="#f0915a" data-original="#F0915A" class=""/><path d="m96 111.945h392a8 8 0 0 1 8 8v32a8 8 0 0 1 -8 8h-392a0 0 0 0 1 0 0v-48a0 0 0 0 1 0 0z" fill="#a55528" data-original="#A55528" class=""/><path d="m96 135.945h400a0 0 0 0 1 0 0v16a8 8 0 0 1 -8 8h-392a0 0 0 0 1 0 0v-24a0 0 0 0 1 0 0z" fill="#784119" data-original="#784119" class=""/><rect fill="#fab991" height="64" rx="16" width="32" x="232" y="79.945" data-original="#FAB991" class=""/><rect fill="#fab991" height="64" rx="16" width="32" x="264" y="79.945" data-original="#FAB991" class=""/><rect fill="#fab991" height="48" rx="16" width="32" x="296" y="79.945" data-original="#FAB991" class=""/><circle cx="248" cy="127.945" fill="#f0915a" r="8" data-original="#F0915A" class=""/><rect fill="#fab991" height="64" rx="16" width="32" x="200" y="79.945" data-original="#FAB991" class=""/><g fill="#f0915a"><circle cx="216" cy="127.945" r="8" data-original="#F0915A" class=""/><circle cx="280" cy="127.945" r="8" data-original="#F0915A" class=""/><circle cx="312" cy="111.945" r="8" data-original="#F0915A" class=""/></g><path d="m200 159.945v-48a32 32 0 0 0 -32-32 8 8 0 0 0 -8 8v96a40 40 0 0 0 40 40h64a64 64 0 0 0 -64-64z" fill="#fab991" data-original="#FAB991" class=""/><path d="m160 87.945a16 16 0 0 1 16 16 8 8 0 0 1 -8 8h-8a0 0 0 0 1 0 0v-24a0 0 0 0 1 0 0z" fill="#f0915a" data-original="#F0915A" class=""/><path d="m88 95.945h-64a8 8 0 0 0 -8 8v112a40 40 0 0 0 40 40h3.6a12.262 12.262 0 0 0 12.4-11.775 12 12 0 0 0 -12-12.225 4 4 0 0 1 -4-4v-36a16 16 0 0 1 16-16h8a16 16 0 0 0 16-16v-56a8 8 0 0 0 -8-8z" fill="#555" data-original="#555"/><rect fill="#555" height="40" rx="8" width="80" x="16" y="31.945" data-original="#555"/><path d="m88 71.945-5.172 5.171a9.658 9.658 0 0 0 -2.828 6.829 9.656 9.656 0 0 0 2.828 6.828l5.172 5.172h-64l5.172-5.172a9.656 9.656 0 0 0 2.828-6.828 9.658 9.658 0 0 0 -2.828-6.829l-5.172-5.171z" fill="#3c3c3c" data-original="#3C3C3C"/><rect fill="#828787" height="8" rx="4" width="64" x="24" y="103.945" data-original="#828787"/><rect fill="#828787" height="8" rx="4" width="64" x="24" y="39.945" data-original="#828787"/><path d="m352 287.938v-31.993a16 16 0 0 0 -16-16h-8a15.992 15.992 0 0 0 -15.851 13.929 120.135 120.135 0 0 0 -112.3 0 15.992 15.992 0 0 0 -15.849-13.929h-8a16 16 0 0 0 -16 16v31.993a120 120 0 1 0 192 0z" fill="#5a7db9" data-original="#5A7DB9" class="" style="fill:#00CCFF" data-old_color="#5a7db9"/><path d="m152 363.945a4 4 0 0 1 -4-4 108.122 108.122 0 0 1 108-108 4 4 0 0 1 0 8 100.113 100.113 0 0 0 -100 100 4 4 0 0 1 -4 4z" fill="#6fa4d8" data-original="#6FA4D8" class="" data-old_color="#6fa4d8" style="fill:#00E6FF"/><path d="m256 480.055a119.8 119.8 0 0 1 -84.971-35.139 13.5 13.5 0 1 1 19.092-19.092 93.167 93.167 0 1 0 131.758-131.758 13.5 13.5 0 0 1 19.092-19.092 120.11 120.11 0 0 1 -84.971 205.081z" fill="#5055a5" data-original="#5055A5" class="" data-old_color="#5055a5" style="fill:#40DDDD"/><circle cx="256" cy="359.945" fill="#d7e6e6" r="80" data-original="#D7E6E6" class=""/><path d="m256 295.945v128a64 64 0 0 0 0-128z" fill="#f05555" data-original="#F05555" class="active-path" style="fill:#FF4D4D" data-old_color="#f05555"/><path d="m260 344.469v-48.524a4 4 0 1 0 -8 0v48.524a16 16 0 1 0 8 0z" fill="#3c413c" data-original="#3C413C" class=""/><circle cx="256" cy="359.945" fill="#faa51e" r="8" data-original="#FAA51E" class="" style="fill:#FAA51E"/><path d="m256 427.945a4 4 0 0 1 -4-4v-8a4 4 0 1 1 8 0v8a4 4 0 0 1 -4 4z" fill="#3c413c" data-original="#3C413C" class=""/><path d="m320 363.945h-8a4 4 0 0 1 0-8h8a4 4 0 0 1 0 8z" fill="#3c413c" data-original="#3C413C" class=""/><path d="m200 363.945h-8a4 4 0 1 1 0-8h8a4 4 0 0 1 0 8z" fill="#3c413c" data-original="#3C413C" class=""/><rect fill="#5a7db9" height="67.882" rx="8" transform="matrix(.707 -.707 .707 .707 -51.539 339.464)" width="45.255" x="361.373" y="198.004" data-original="#5A7DB9" class="" style="fill:#00CCFF" data-old_color="#5a7db9"/><rect fill="#5a7db9" height="45.255" rx="8" transform="matrix(.707 -.707 .707 .707 -206.117 158.278)" width="67.882" x="54.059" y="305.318" data-original="#5A7DB9" class="" style="fill:#00CCFF" data-old_color="#5a7db9"/><rect fill="#5a7db9" height="40" rx="8" width="40" x="416" y="359.945" data-original="#5A7DB9" class="" style="fill:#00CCFF" data-old_color="#5a7db9"/></g> </svg>
